<svg width="198" height="63" viewBox="0 0 198 63" fill="none" xmlns="http://www.w3.org/2000/svg">
<path d="M123.822 58.0556C123.822 60.4993 121.966 62.0849 118.779 62.0849C115.591 62.0849 112.968 60.4421 112.968 57.6142H116.18C116.18 58.971 117.357 59.4695 118.779 59.4695C119.972 59.4695 120.618 59.0036 120.618 58.3661C120.618 57.3527 119.245 57.1157 117.447 56.5844C115.256 55.9469 113.327 54.9988 113.327 52.645C113.327 49.8662 115.501 48.7792 118.247 48.7792C121.222 48.7792 123.56 50.3484 123.65 52.9311H120.446C120.307 51.9667 119.482 51.3946 118.256 51.3946C117.291 51.3946 116.547 51.697 116.547 52.408C116.547 53.1926 117.348 53.4378 118.95 53.8873C121.353 54.5493 123.83 55.3339 123.83 58.0556H123.822Z" fill="white"/>
<path d="M127.981 59.1425L127.164 61.7987H123.952L128.57 49.0569H131.774L136.375 61.7987H133.171L132.354 59.1425H127.981ZM131.635 56.6987L130.188 51.9911H130.156L128.709 56.6987H131.635Z" fill="white"/>
<path d="M141.974 62.0848C138.124 62.0848 136.645 60.3766 136.645 57.2055V49.0569H139.849V57.2055C139.849 58.8646 140.56 59.4694 141.974 59.4694C143.388 59.4694 144.099 58.8646 144.099 57.2055V49.0569H147.303V57.2055C147.303 60.3766 145.823 62.0848 141.974 62.0848Z" fill="white"/>
<path d="M148.97 49.0569H152.893L155.517 57.1809H155.549L158.173 49.0569H162.096V61.7987H159.064V53.8709H159.031L156.661 61.7987H154.413L152.043 53.8709H152.01V61.7987H148.978V49.0569H148.97Z" fill="white"/>
<path d="M172.606 53.9363V56.5598H167.049V59.1752H173.603V61.7987H163.837V49.0569H173.497V51.6805H167.049V53.9444H172.606V53.9363Z" fill="white"/>
<path d="M175.042 49.0569H181.049C183.885 49.0569 185.593 50.3565 185.593 52.7675C185.593 54.4593 184.596 55.53 183.011 55.8896V55.9223C186.198 56.4781 185.046 61.4146 185.773 61.6271V61.8069H182.438C181.817 61.2756 182.97 57.3689 180.248 57.3689H178.254V61.8069H175.05V49.0651L175.042 49.0569ZM178.246 54.7454H180.42C181.703 54.7454 182.381 54.2795 182.381 53.2088C182.381 52.1382 181.703 51.6723 180.42 51.6723H178.246V54.7454Z" fill="white"/>
<path d="M186.68 50.6589V49.0569H191.061V50.6589H189.672V53.9526H188.07V50.6589H186.68ZM193.881 49.0569L194.829 51.6396H194.861L195.826 49.0569H198V53.9608H196.357V50.8387H196.324L195.417 53.9608H194.257L193.366 50.8387H193.333V53.9608H191.731V49.0569H193.889H193.881Z" fill="white"/>
<path d="M111.227 46.7115H128.611V29.7198L75.3554 56.7072H64.8285L128.611 8.35546V0.468506H127.851L56.255 56.7072H48.4089L92.5923 0.468506H30.8042C13.7879 0.468506 0 14.2646 0 31.2727C0 48.2889 13.7961 62.085 30.8042 62.085H111.227V46.7115ZM30.5917 56.7072C16.5422 56.7072 5.15718 45.3221 5.15718 31.2727C5.15718 17.2232 16.5422 5.8382 30.5917 5.8382C44.6411 5.8382 56.0262 17.2232 56.0262 31.2727C56.0262 45.3221 44.6411 56.7072 30.5917 56.7072Z" fill="white"/>
</svg>
