<svg width="220" height="56" viewBox="0 0 220 56" fill="none" xmlns="http://www.w3.org/2000/svg">
<path d="M0.352417 16.6034C0.352417 15.9 0.725729 15.2494 1.33303 14.8945L24.8427 1.15454C26.1622 0.383349 27.8208 1.33507 27.8208 2.86346V23.568L14.2325 15.4676V55.6723H2.33178C1.23861 55.6723 0.352417 54.7861 0.352417 53.6929V16.6034Z" fill="white"/>
<path d="M27.8212 23.5932L40.6348 31.4553C41.2215 31.8153 41.579 32.4542 41.579 33.1424V53.693C41.579 54.7862 40.6928 55.6724 39.5996 55.6724H29.8005C28.7074 55.6724 27.8212 54.7862 27.8212 53.693V23.5932Z" fill="white"/>
<path d="M59.719 45.4511L69.523 18.8511H72.905L82.671 45.4511H79.289L76.857 38.6111H65.533L63.063 45.4511H59.719ZM66.483 36.0271H75.907L71.195 22.8791L66.483 36.0271Z" fill="white"/>
<path d="M86.4354 45.4511V26.6031H89.3234L89.5894 30.2131C90.172 28.9718 91.0587 27.9838 92.2494 27.2491C93.44 26.5145 94.9094 26.1471 96.6574 26.1471V29.4911H95.7834C94.6687 29.4911 93.6427 29.6938 92.7054 30.0991C91.768 30.4791 91.0207 31.1378 90.4634 32.0751C89.906 33.0125 89.6274 34.3045 89.6274 35.9511V45.4511H86.4354Z" fill="white"/>
<path d="M108.199 45.9071C106.4 45.9071 104.779 45.5018 103.335 44.6911C101.916 43.8551 100.789 42.7025 99.953 41.2331C99.1423 39.7385 98.737 38.0031 98.737 36.0271C98.737 34.0511 99.1423 32.3285 99.953 30.8591C100.789 29.3645 101.916 28.2118 103.335 27.4011C104.779 26.5651 106.4 26.1471 108.199 26.1471C110.428 26.1471 112.303 26.7298 113.823 27.8951C115.368 29.0605 116.344 30.6185 116.749 32.5691H113.481C113.228 31.4038 112.607 30.5045 111.619 29.8711C110.631 29.2125 109.478 28.8831 108.161 28.8831C107.097 28.8831 106.096 29.1491 105.159 29.6811C104.222 30.2131 103.462 31.0111 102.879 32.0751C102.296 33.1391 102.005 34.4565 102.005 36.0271C102.005 37.5978 102.296 38.9151 102.879 39.9791C103.462 41.0431 104.222 41.8538 105.159 42.4111C106.096 42.9431 107.097 43.2091 108.161 43.2091C109.478 43.2091 110.631 42.8925 111.619 42.2591C112.607 41.6005 113.228 40.6758 113.481 39.4851H116.749C116.369 41.3851 115.406 42.9305 113.861 44.1211C112.316 45.3118 110.428 45.9071 108.199 45.9071Z" fill="white"/>
<path d="M121.207 45.4511V18.0911H124.399V29.8331C125.032 28.6678 125.932 27.7685 127.097 27.1351C128.262 26.4765 129.529 26.1471 130.897 26.1471C133.076 26.1471 134.824 26.8311 136.141 28.1991C137.458 29.5418 138.117 31.6191 138.117 34.4311V45.4511H134.963V34.7731C134.963 30.8465 133.38 28.8831 130.213 28.8831C128.566 28.8831 127.186 29.4785 126.071 30.6691C124.956 31.8345 124.399 33.5065 124.399 35.6851V45.4511H121.207Z" fill="white"/>
<path d="M144.891 22.4231C144.258 22.4231 143.726 22.2205 143.295 21.8151C142.89 21.3845 142.687 20.8525 142.687 20.2191C142.687 19.6111 142.89 19.1045 143.295 18.6991C143.726 18.2938 144.258 18.0911 144.891 18.0911C145.499 18.0911 146.018 18.2938 146.449 18.6991C146.88 19.1045 147.095 19.6111 147.095 20.2191C147.095 20.8525 146.88 21.3845 146.449 21.8151C146.018 22.2205 145.499 22.4231 144.891 22.4231ZM143.295 45.4511V26.6031H146.487V45.4511H143.295Z" fill="white"/>
<path d="M159.493 45.4511C157.77 45.4511 156.415 45.0331 155.427 44.1971C154.439 43.3611 153.945 41.8538 153.945 39.6751V29.3011H150.677V26.6031H153.945L154.363 22.0811H157.137V26.6031H162.685V29.3011H157.137V39.6751C157.137 40.8658 157.377 41.6765 157.859 42.1071C158.34 42.5125 159.189 42.7151 160.405 42.7151H162.381V45.4511H159.493Z" fill="white"/>
<path d="M174.695 45.9071C172.896 45.9071 171.3 45.5018 169.907 44.6911C168.513 43.8551 167.411 42.7025 166.601 41.2331C165.815 39.7638 165.423 38.0285 165.423 36.0271C165.423 34.0511 165.815 32.3285 166.601 30.8591C167.386 29.3645 168.475 28.2118 169.869 27.4011C171.287 26.5651 172.921 26.1471 174.771 26.1471C176.595 26.1471 178.165 26.5651 179.483 27.4011C180.825 28.2118 181.851 29.2885 182.561 30.6311C183.27 31.9738 183.625 33.4178 183.625 34.9631C183.625 35.2418 183.612 35.5205 183.587 35.7991C183.587 36.0778 183.587 36.3945 183.587 36.7491H168.577C168.653 38.1931 168.982 39.3965 169.565 40.3591C170.173 41.2965 170.92 42.0058 171.807 42.4871C172.719 42.9685 173.681 43.2091 174.695 43.2091C176.012 43.2091 177.114 42.9051 178.001 42.2971C178.887 41.6891 179.533 40.8658 179.939 39.8271H183.093C182.586 41.5751 181.611 43.0318 180.167 44.1971C178.748 45.3371 176.924 45.9071 174.695 45.9071ZM174.695 28.8451C173.175 28.8451 171.819 29.3138 170.629 30.2511C169.463 31.1631 168.792 32.5058 168.615 34.2791H180.471C180.395 32.5818 179.812 31.2518 178.723 30.2891C177.633 29.3265 176.291 28.8451 174.695 28.8451Z" fill="white"/>
<path d="M196.519 45.9071C194.721 45.9071 193.099 45.5018 191.655 44.6911C190.237 43.8551 189.109 42.7025 188.273 41.2331C187.463 39.7385 187.057 38.0031 187.057 36.0271C187.057 34.0511 187.463 32.3285 188.273 30.8591C189.109 29.3645 190.237 28.2118 191.655 27.4011C193.099 26.5651 194.721 26.1471 196.519 26.1471C198.749 26.1471 200.623 26.7298 202.143 27.8951C203.689 29.0605 204.664 30.6185 205.069 32.5691H201.801C201.548 31.4038 200.927 30.5045 199.939 29.8711C198.951 29.2125 197.799 28.8831 196.481 28.8831C195.417 28.8831 194.417 29.1491 193.479 29.6811C192.542 30.2131 191.782 31.0111 191.199 32.0751C190.617 33.1391 190.325 34.4565 190.325 36.0271C190.325 37.5978 190.617 38.9151 191.199 39.9791C191.782 41.0431 192.542 41.8538 193.479 42.4111C194.417 42.9431 195.417 43.2091 196.481 43.2091C197.799 43.2091 198.951 42.8925 199.939 42.2591C200.927 41.6005 201.548 40.6758 201.801 39.4851H205.069C204.689 41.3851 203.727 42.9305 202.181 44.1211C200.636 45.3118 198.749 45.9071 196.519 45.9071Z" fill="white"/>
<path d="M216.456 45.4511C214.733 45.4511 213.378 45.0331 212.39 44.1971C211.402 43.3611 210.908 41.8538 210.908 39.6751V29.3011H207.64V26.6031H210.908L211.326 22.0811H214.1V26.6031H219.648V29.3011H214.1V39.6751C214.1 40.8658 214.34 41.6765 214.822 42.1071C215.303 42.5125 216.152 42.7151 217.368 42.7151H219.344V45.4511H216.456Z" fill="white"/>
</svg>
