<svg width="98" height="99" viewBox="0 0 98 99" fill="none" xmlns="http://www.w3.org/2000/svg">
<path d="M47.5037 92.2915V74.3089H30.1861C34.1099 84.5372 40.3679 91.4403 47.5037 92.2915Z" fill="white"/>
<path d="M29.1353 71.323H47.5036V64.493H27.3729C27.8584 66.8739 28.4436 69.1616 29.1353 71.323Z" fill="white"/>
<path d="M27.3529 34.1539H47.5036V27.2243H29.1352C28.4369 29.4122 27.845 31.7332 27.3529 34.1539Z" fill="white"/>
<path d="M67.7208 17.0094C68.9512 19.2439 70.0418 21.6713 70.9795 24.2383H84.0741C78.3814 16.2911 70.0684 10.3524 60.3988 7.69886C63.0988 9.99324 65.5728 13.1189 67.7208 17.0094Z" fill="white"/>
<path d="M30.1861 24.2385H47.5037V6.25589C40.3745 7.10714 34.1165 14.0102 30.1861 24.2385Z" fill="white"/>
<path d="M30.2791 81.5445C29.0488 79.31 27.9581 76.8826 27.0204 74.3089H13.9258C19.6186 82.2561 27.9315 88.2015 37.6012 90.8484C34.9011 88.554 32.4272 85.4283 30.2791 81.5379V81.5445Z" fill="white"/>
<path d="M30.2791 17.0094C32.4272 13.1189 34.9011 9.99324 37.6012 7.69886C27.9315 10.3524 19.6186 16.2911 13.9258 24.2383H27.0204C27.9581 21.6647 29.0421 19.2373 30.2791 17.0094Z" fill="white"/>
<path d="M26.0229 27.2308H11.9574C10.6472 29.4188 9.52996 31.7398 8.62551 34.1605H24.3138C24.7793 31.7731 25.3446 29.452 26.0229 27.2308Z" fill="white"/>
<path d="M24.3337 64.493H8.6588C9.56325 66.8739 10.6672 69.1616 11.9574 71.323H26.0229C25.3513 69.135 24.7926 66.8473 24.3337 64.493Z" fill="white"/>
<path d="M71.9704 71.323H86.0359C87.3261 69.1616 88.4301 66.8739 89.3345 64.493H73.6596C73.2007 66.8473 72.642 69.135 71.9704 71.323Z" fill="white"/>
<path d="M71.9704 27.2308C72.6487 29.452 73.214 31.7731 73.6795 34.1605H89.3678C88.4566 31.7398 87.3394 29.4254 86.0359 27.2308H71.9704Z" fill="white"/>
<path d="M67.7208 81.5447C65.5728 85.4351 63.0988 88.5608 60.3988 90.8552C70.0684 88.2017 78.3814 82.2629 84.0741 74.3157H70.9795C70.0418 76.8894 68.9578 79.3168 67.7208 81.5513V81.5447Z" fill="white"/>
<path d="M50.4963 74.3089V92.2915C57.6255 91.4403 63.8835 84.5372 67.8139 74.3089H50.4963Z" fill="white"/>
<path d="M70.627 64.493H50.4963V71.323H68.8647C69.5563 69.1616 70.1415 66.8739 70.627 64.493Z" fill="white"/>
<path d="M68.8647 27.2308H50.4963V34.1605H70.647C70.1615 31.7465 69.5696 29.4254 68.8647 27.2308Z" fill="white"/>
<path d="M50.4963 6.25589V24.2385H67.8139C63.8902 14.0102 57.6322 7.10714 50.4963 6.25589Z" fill="white"/>
<path d="M95.6125 34.1539C89.2415 14.4954 70.7866 0.276855 49 0.276855C27.2134 0.276855 8.76521 14.4954 2.38749 34.1539C0.844606 38.9156 0 43.9964 0 49.2768C0 54.5572 0.857909 59.7046 2.42075 64.4929C8.82506 84.1049 27.2533 98.2768 49 98.2768C70.7467 98.2768 89.1749 84.1049 95.5793 64.4929C97.1421 59.698 98 54.5905 98 49.2768C98 43.9632 97.1554 38.9222 95.6125 34.1539ZM49 95.3839C28.9092 95.3839 11.7845 82.4622 5.48656 64.4929C3.81732 59.7246 2.89292 54.6038 2.89292 49.2768C2.89292 43.9499 3.80403 38.8956 5.45332 34.1539C11.7246 16.138 28.876 3.1631 49 3.1631C69.124 3.1631 86.2754 16.1314 92.5467 34.1539C94.196 38.8956 95.1071 43.9765 95.1071 49.2768C95.1071 54.5772 94.1893 59.7246 92.5134 64.4929C86.2089 82.4622 69.0908 95.3839 49 95.3839Z" fill="white"/>
<path d="M12.0571 37.5519L17.0183 45.9913H17.0582V37.5519H20.6295V51.7505H17.0582L12.0904 43.3112H12.0505V51.7505H8.47924V37.5519H12.0571Z" fill="white"/>
<path d="M22.1192 44.6413C22.1192 40.3718 24.6397 37.2328 29.1486 37.2328C33.6576 37.2328 36.1781 40.3718 36.1781 44.6413C36.1781 48.9109 33.6177 52.0698 29.1486 52.0698C24.6796 52.0698 22.1192 48.9308 22.1192 44.6413ZM32.6068 44.6413C32.6068 42.1807 31.7356 40.1523 29.1486 40.1523C26.5616 40.1523 25.6904 42.174 25.6904 44.6413C25.6904 47.1086 26.5483 49.1502 29.1486 49.1502C31.7489 49.1502 32.6068 47.1219 32.6068 44.6413Z" fill="white"/>
<path d="M37.5547 37.5519H44.245C47.4039 37.5519 49.3125 39.0017 49.3125 41.6818C49.3125 43.5706 48.2019 44.761 46.4329 45.16V45.1999C49.9909 45.8184 48.6941 51.3182 49.5121 51.5576V51.7571H45.8011C45.1029 51.1653 46.3997 46.8093 43.3605 46.8093H41.1392V51.7571H37.568V37.5586L37.5547 37.5519ZM41.1259 43.8898H43.5467C44.9765 43.8898 45.7346 43.371 45.7346 42.1806C45.7346 40.9902 44.9831 40.4715 43.5467 40.4715H41.1259V43.8898Z" fill="white"/>
<path d="M50.1571 40.4715V37.5519H61.9748V40.4715H57.8649V51.7505H54.2937V40.4715H50.1571Z" fill="white"/>
<path d="M66.8629 37.5519V43.1117H71.7309V37.5519H75.3022V51.7505H71.7309V46.0312H66.8629V51.7505H63.2916V37.5519H66.8629Z" fill="white"/>
<path d="M76.8983 39.3409V37.5519H81.7863V39.3409H80.2368V43.0119H78.4478V39.3409H76.8983ZM84.9253 37.5519L85.976 40.4316H86.0159L87.0867 37.5519H89.5074V43.0119H87.6785V39.5337H87.6386L86.6278 43.0119H85.3376L84.3467 39.5337H84.3068V43.0119H82.5179V37.5519H84.9253Z" fill="white"/>
<path d="M32.1613 53.7191C34.7017 53.7191 35.952 54.7499 36.1515 56.4524H35.0542C34.8613 55.109 33.8106 54.6302 32.1613 54.6302C30.2925 54.6302 29.2351 55.2221 29.2351 56.9977C29.2351 58.7734 30.3058 59.3853 32.1613 59.3853C33.7973 59.3853 34.8613 58.8998 35.0542 57.5431H36.1582C35.9454 59.2522 34.7017 60.2964 32.1613 60.2964C29.3415 60.2964 28.1378 59.0394 28.1378 56.9911C28.1378 54.9428 29.3482 53.7058 32.1613 53.7058V53.7191Z" fill="white"/>
<path d="M36.8965 57.0044C36.8965 54.9627 38.1069 53.7191 40.92 53.7191C43.7331 53.7191 44.9434 54.976 44.9434 57.0044C44.9434 59.0328 43.7264 60.3097 40.92 60.3097C38.1135 60.3097 36.8965 59.0527 36.8965 57.0044ZM43.8528 57.0044C43.8528 55.2421 42.8818 54.6369 40.9266 54.6369C38.9714 54.6369 38.0005 55.2288 38.0005 57.0044C38.0005 58.7801 38.9781 59.3919 40.9266 59.3919C42.8752 59.3919 43.8528 58.7801 43.8528 57.0044Z" fill="white"/>
<path d="M55.584 60.2098H54.4866V54.8962L51.1348 60.2098H50.2171L46.8653 54.8962V60.2098H45.768V53.8055H47.4572L50.6693 58.9396L53.8815 53.8055H55.5706V60.2098H55.584Z" fill="white"/>
<path d="M64.0765 56.0799C64.0765 57.5097 63.0789 58.3477 61.6225 58.3477H57.6855V60.2164H56.5881V53.8121H61.6225C63.0789 53.8121 64.0765 54.6567 64.0765 56.0799ZM62.9792 56.0799C62.9792 54.7232 61.8619 54.7232 61.1703 54.7232H57.6921V57.4299H61.1703C61.8686 57.4299 62.9792 57.4299 62.9792 56.0733V56.0799Z" fill="white"/>
<path d="M69.9754 58.6935H65.38L64.4756 60.2098H63.2585L67.0559 53.8055H68.2995L72.0969 60.2098H70.8799L69.9754 58.6935ZM69.4367 57.7758L67.681 54.8097L65.9253 57.7758H69.4367Z" fill="white"/>
<path d="M80.902 53.8055V60.2098H79.3192L73.7462 54.8563V60.2098H72.6489V53.8055H74.2317L79.8047 59.159V53.8055H80.902Z" fill="white"/>
<path d="M82.7773 53.8055L85.8033 57.1373L88.8292 53.8055H90.2457L86.3486 58.1083V60.2098H85.2513V58.1083L81.3541 53.8055H82.7773Z" fill="white"/>
<path d="M28.5169 56.645V57.5628H7.74114V56.645H28.5169Z" fill="white"/>
</svg>
