<svg width="443" height="51" viewBox="0 0 443 51" fill="none" xmlns="http://www.w3.org/2000/svg">
<g clip-path="url(#clip0_547_454)">
<path d="M443 46.4335C442.514 46.6523 441.852 46.9369 441.013 47.2871C440.174 47.6373 439.202 47.9438 438.098 48.2064C436.994 48.4691 435.824 48.6004 434.587 48.6004C433.174 48.6004 431.871 48.3597 430.679 47.8781C429.486 47.3528 428.537 46.5648 427.83 45.5141C427.124 44.4197 426.77 43.0626 426.77 41.4428V18.3939H422.067V13.8629H426.77V2.43692H432.6V13.8629H440.35V18.3939H432.6V39.6698C432.688 40.8956 433.108 41.8149 433.858 42.4278C434.609 42.9969 435.492 43.2815 436.508 43.2815C437.656 43.2815 438.716 43.0845 439.688 42.6905C440.659 42.2965 441.3 42.0119 441.609 41.8368L443 46.4335Z" fill="white"/>
<path d="M416.373 48.1408H410.543V28.9662C410.543 25.3326 409.969 22.6841 408.821 21.0205C407.717 19.3132 406.017 18.4595 403.72 18.4595C402.13 18.4595 400.54 18.8535 398.951 19.6415C397.405 20.4295 396.014 21.5021 394.777 22.8592C393.585 24.1725 392.724 25.7047 392.194 27.4558V48.1408H386.364V13.8629H391.664V21.2175C392.591 19.5978 393.784 18.1969 395.241 17.0149C396.698 15.8329 398.354 14.9136 400.209 14.2569C402.064 13.6002 404.007 13.2719 406.039 13.2719C408.026 13.2719 409.682 13.644 411.007 14.3882C412.376 15.0887 413.436 16.0955 414.187 17.4089C414.982 18.6784 415.534 20.1888 415.843 21.9399C416.196 23.691 416.373 25.5953 416.373 27.6528V48.1408Z" fill="white"/>
<path d="M362.528 48.7974C359.923 48.7974 357.538 48.3378 355.374 47.4185C353.254 46.4553 351.4 45.1639 349.81 43.5441C348.264 41.8806 347.049 39.9762 346.166 37.8311C345.327 35.686 344.908 33.4096 344.908 31.0018C344.908 27.7623 345.658 24.8073 347.16 22.1369C348.661 19.4664 350.737 17.3213 353.387 15.7015C356.081 14.0818 359.15 13.2719 362.595 13.2719C366.083 13.2719 369.109 14.1037 371.67 15.7672C374.276 17.387 376.285 19.5321 377.698 22.2025C379.156 24.8292 379.884 27.6747 379.884 30.7392C379.884 31.1769 379.862 31.6147 379.818 32.0525C379.818 32.4465 379.796 32.7529 379.752 32.9718H351.068C351.245 35.2045 351.863 37.1964 352.923 38.9475C354.027 40.6548 355.44 42.0119 357.163 43.0188C358.885 43.9819 360.74 44.4635 362.727 44.4635C364.847 44.4635 366.834 43.9381 368.689 42.8875C370.588 41.8368 371.891 40.4578 372.597 38.7505L377.632 40.1295C376.881 41.793 375.755 43.2815 374.254 44.5948C372.796 45.9081 371.052 46.9369 369.02 47.6811C367.033 48.4253 364.869 48.7974 362.528 48.7974ZM350.87 28.9662H374.452C374.276 26.7335 373.635 24.7635 372.531 23.0562C371.427 21.3489 370.014 20.0136 368.292 19.0505C366.569 18.0874 364.67 17.6059 362.595 17.6059C360.563 17.6059 358.686 18.0874 356.964 19.0505C355.242 20.0136 353.828 21.3489 352.724 23.0562C351.664 24.7635 351.046 26.7335 350.87 28.9662Z" fill="white"/>
<path d="M322.618 48.1408L309.038 13.8629H315.132L325.996 42.6248L336.86 13.8629H342.557L328.977 48.1408H322.618Z" fill="white"/>
<path d="M306.4 42.8875V48.1408H274.47V1.51759H305.804V6.77091H280.432V21.8742H302.491V26.7992H280.432V42.8875H306.4Z" fill="white"/>
<path d="M253.379 48.7974C250.508 48.7974 247.814 48.3378 245.297 47.4185C242.78 46.4553 240.616 45.0326 238.805 43.1501L241.057 39.0788C243.044 40.9175 245.032 42.2308 247.019 43.0188C249.006 43.8068 251.038 44.2008 253.114 44.2008C255.498 44.2008 257.441 43.763 258.943 42.8875C260.445 41.9681 261.195 40.6329 261.195 38.8818C261.195 37.6123 260.798 36.671 260.003 36.0582C259.252 35.4453 258.17 34.9418 256.757 34.5478C255.344 34.11 253.666 33.6285 251.722 33.1032C249.338 32.4027 247.328 31.6585 245.694 30.8705C244.06 30.0825 242.824 29.0975 241.985 27.9155C241.146 26.7335 240.726 25.2451 240.726 23.4502C240.726 21.2613 241.3 19.4226 242.448 17.9342C243.597 16.402 245.164 15.2419 247.152 14.4539C249.183 13.6659 251.48 13.2719 254.041 13.2719C256.602 13.2719 258.921 13.6659 260.997 14.4539C263.072 15.2419 264.861 16.402 266.362 17.9342L263.713 21.9399C262.344 20.539 260.842 19.5102 259.208 18.8535C257.574 18.1531 255.741 17.8029 253.71 17.8029C252.517 17.8029 251.347 17.9561 250.199 18.2625C249.051 18.5252 248.101 19.0286 247.35 19.7729C246.6 20.4733 246.224 21.4802 246.224 22.7935C246.224 23.888 246.511 24.7635 247.085 25.4202C247.704 26.0331 248.587 26.5584 249.735 26.9962C250.928 27.434 252.363 27.9155 254.041 28.4408C256.647 29.1851 258.899 29.9293 260.798 30.6735C262.741 31.4177 264.242 32.3808 265.302 33.5628C266.362 34.7448 266.892 36.3865 266.892 38.4878C266.892 41.7274 265.656 44.2665 263.183 46.1051C260.71 47.9 257.441 48.7974 253.379 48.7974Z" fill="white"/>
<path d="M201.405 34.4165V13.8629H207.234V33.3002C207.234 36.8024 207.852 39.429 209.089 41.1801C210.325 42.9312 212.158 43.8068 214.587 43.8068C216.177 43.8068 217.701 43.4785 219.158 42.8218C220.659 42.1214 222.006 41.1364 223.199 39.8668C224.391 38.5973 225.319 37.0869 225.981 35.3358V13.8629H231.811V41.5741C231.811 42.2746 231.943 42.7999 232.208 43.1501C232.517 43.4566 233.003 43.6317 233.665 43.6755V48.1408C233.003 48.2283 232.473 48.2721 232.076 48.2721C231.722 48.3159 231.369 48.3378 231.016 48.3378C229.912 48.3378 228.962 48.0094 228.167 47.3528C227.372 46.6523 226.953 45.7987 226.908 44.7918L226.776 40.7861C225.274 43.3252 223.243 45.2952 220.682 46.6961C218.164 48.097 215.404 48.7974 212.401 48.7974C208.78 48.7974 206.042 47.5936 204.187 45.1858C202.332 42.7342 201.405 39.1445 201.405 34.4165Z" fill="white"/>
<path d="M170.357 13.8629L179.498 26.4708L180.028 27.5215L180.624 26.4708L189.7 13.8629H196.192L183.407 31.0675L196.258 48.1408H189.766L180.624 35.5985L180.028 34.6135L179.498 35.5985L170.357 48.1408H163.865L176.716 31.0675L163.931 13.8629H170.357Z" fill="white"/>
<path d="M145.231 48.7974C142.625 48.7974 140.241 48.3378 138.077 47.4185C135.957 46.4553 134.102 45.1639 132.512 43.5441C130.967 41.8806 129.752 39.9762 128.869 37.8311C128.03 35.686 127.61 33.4096 127.61 31.0018C127.61 27.7623 128.361 24.8073 129.863 22.1369C131.364 19.4664 133.44 17.3213 136.089 15.7015C138.783 14.0818 141.853 13.2719 145.297 13.2719C148.786 13.2719 151.811 14.1037 154.373 15.7672C156.978 17.387 158.988 19.5321 160.401 22.2025C161.858 24.8292 162.587 27.6747 162.587 30.7392C162.587 31.1769 162.565 31.6147 162.521 32.0525C162.521 32.4465 162.499 32.7529 162.454 32.9718H133.771C133.948 35.2045 134.566 37.1964 135.626 38.9475C136.73 40.6548 138.143 42.0119 139.865 43.0188C141.588 43.9819 143.442 44.4635 145.43 44.4635C147.55 44.4635 149.537 43.9381 151.392 42.8875C153.291 41.8368 154.593 40.4578 155.3 38.7505L160.335 40.1295C159.584 41.793 158.458 43.2815 156.956 44.5948C155.499 45.9081 153.754 46.9369 151.723 47.6811C149.736 48.4253 147.572 48.7974 145.231 48.7974ZM133.572 28.9662H157.155C156.978 26.7335 156.338 24.7635 155.234 23.0562C154.13 21.3489 152.717 20.0136 150.994 19.0505C149.272 18.0874 147.373 17.6059 145.297 17.6059C143.266 17.6059 141.389 18.0874 139.667 19.0505C137.944 20.0136 136.531 21.3489 135.427 23.0562C134.367 24.7635 133.749 26.7335 133.572 28.9662Z" fill="white"/>
<path d="M86.4237 12.4182V48.1408H80.4618V1.51759H85.4963L114.246 37.9625V1.58326H120.208V48.1408H114.776L86.4237 12.4182Z" fill="white"/>
<path d="M1.88002 20.7785L10.7768 11.9593C13.2835 9.47442 17.3476 9.47442 19.8543 11.9593L28.7511 20.7785C31.2578 23.2633 31.2578 27.2921 28.7511 29.777L19.8543 38.5962C17.3476 41.081 13.2835 41.081 10.7768 38.5962L1.88003 29.777C-0.626675 27.2921 -0.626675 23.2634 1.88002 20.7785Z" fill="white"/>
<path d="M31.0204 18.5289L25.1841 12.7434L35.8798 2.14098C38.3865 -0.343871 42.4506 -0.343868 44.9573 2.14098L63.7583 20.7781C66.265 23.263 66.265 27.2917 63.7583 29.7766L44.9573 48.4137C42.4506 50.8986 38.3865 50.8986 35.8798 48.4137L25.1845 37.8116L31.0204 32.0266C34.7805 28.2993 34.7805 22.2562 31.0204 18.5289Z" fill="white"/>
</g>
<defs>
<clipPath id="clip0_547_454">
<rect width="443" height="50" fill="white" transform="translate(0 0.277344)"/>
</clipPath>
</defs>
</svg>
