<svg width="65" height="65" viewBox="0 0 65 65" fill="none" xmlns="http://www.w3.org/2000/svg">
<path d="M45.8441 36.3122L47.5443 29.6218C48.3366 26.5101 51.4851 24.663 54.5312 25.5236L57.2336 26.2293L57.273 39.5472C57.0893 46.5394 53.3427 52.9281 47.3842 56.4255L43.9157 58.4641M45.8441 36.3122L44.4824 37.1098C40.4262 39.4921 39.0356 44.7658 41.3786 48.8902L42.2549 50.4303M45.8441 36.3122L31.7759 11.5366L27.9662 13.772C26.6627 14.5501 25.7159 15.808 25.3289 17.276C24.9419 18.744 25.1456 20.3051 25.8961 21.6247L32.6627 33.5363M23.9546 38.6473L14.6326 22.2334C13.0715 19.4838 13.9977 15.968 16.7027 14.3807L20.5097 12.1453L33.3002 34.6645M24.5948 39.7755L14.3624 21.7585L10.5554 23.9939C7.85035 25.5813 6.92419 29.097 8.48266 31.8467L23.7578 58.7369" stroke="#A9A9A9" stroke-width="3"/>
<path d="M44.6792 20.5411C45.0756 19.0623 45.1768 17.5199 44.977 16.002C44.7772 14.4841 44.2804 13.0204 43.5149 11.6945C42.7493 10.3686 41.7301 9.2065 40.5155 8.27455C39.3008 7.3426 37.9144 6.65905 36.4355 6.26294" stroke="#A9A9A9" stroke-width="3"/>
<path d="M8.12584 44.4587C7.72947 45.9375 7.62829 47.48 7.82807 48.9979C8.02785 50.5158 8.52468 51.9795 9.2902 53.3054C10.0557 54.6312 11.0749 55.7933 12.2896 56.7253C13.5043 57.6572 14.8906 58.3408 16.3695 58.7369" stroke="#A9A9A9" stroke-width="3"/>
</svg>
