<svg width="32" height="32" viewBox="0 0 32 32" fill="none" xmlns="http://www.w3.org/2000/svg">
<g clip-path="url(#clip0_614_551)">
<path d="M26.9363 9.005C26.2125 9.31653 25.4515 9.53346 24.6722 9.65043C25.0365 9.58797 25.5726 8.93213 25.786 8.66668C26.1102 8.26626 26.3573 7.80915 26.5147 7.31857C26.5147 7.28214 26.5512 7.23009 26.5147 7.20406C26.4964 7.19404 26.4758 7.18879 26.4549 7.18879C26.434 7.18879 26.4134 7.19404 26.395 7.20406C25.5488 7.66232 24.6482 8.01208 23.7144 8.24507C23.6819 8.25501 23.6472 8.2559 23.6142 8.24765C23.5812 8.2394 23.5511 8.22231 23.527 8.19822C23.4544 8.11168 23.3761 8.02996 23.2928 7.95359C22.912 7.61237 22.4799 7.3331 22.0124 7.12599C21.3813 6.86708 20.6996 6.75495 20.0189 6.79807C19.3583 6.83979 18.7134 7.01696 18.1242 7.31857C17.5441 7.63656 17.0342 8.06856 16.6252 8.5886C16.195 9.12386 15.8844 9.74504 15.7143 10.4104C15.574 11.0432 15.5581 11.6973 15.6675 12.3362C15.6675 12.4455 15.6675 12.4611 15.5738 12.4455C11.8626 11.899 8.81763 10.5821 6.32963 7.75579C6.22032 7.63087 6.16307 7.63087 6.07458 7.75579C4.99194 9.40059 5.51764 12.0031 6.87095 13.2887C7.05313 13.4605 7.24051 13.6271 7.4383 13.7832C6.81782 13.7392 6.21249 13.571 5.65818 13.2887C5.55408 13.2211 5.49682 13.2575 5.49162 13.3824C5.47686 13.5556 5.47686 13.7298 5.49162 13.9029C5.60023 14.7329 5.92732 15.5192 6.43946 16.1813C6.95159 16.8434 7.63039 17.3576 8.40644 17.6714C8.59562 17.7524 8.79274 17.8135 8.9946 17.8536C8.42019 17.9667 7.83106 17.9842 7.25092 17.9056C7.126 17.8796 7.07915 17.9473 7.126 18.067C7.89114 20.149 9.55154 20.784 10.7695 21.1379C10.9361 21.164 11.1026 21.164 11.29 21.2056C11.29 21.2056 11.29 21.2056 11.2588 21.2368C10.8996 21.8927 9.44744 22.3351 8.7812 22.5641C7.56513 23.0009 6.26858 23.1679 4.98153 23.0534C4.77853 23.0222 4.73168 23.0274 4.67963 23.0534C4.62758 23.0794 4.67963 23.1367 4.73689 23.1887C4.99714 23.3605 5.25739 23.5114 5.52805 23.6572C6.33382 24.0967 7.18567 24.4458 8.06811 24.6982C12.6381 25.9578 17.7807 25.0313 21.2108 21.622C23.907 18.9466 24.8543 15.2563 24.8543 11.5607C24.8543 11.4201 25.0261 11.3369 25.125 11.264C25.8071 10.7325 26.4085 10.1048 26.9103 9.40059C26.9972 9.29561 27.0418 9.16195 27.0352 9.02582V9.02582C27.0352 8.94775 27.0352 8.96336 26.9363 9.005Z" fill="#A9A9A9"/>
</g>
<defs>
<clipPath id="clip0_614_551">
<rect width="32" height="32" fill="white"/>
</clipPath>
</defs>
</svg>
