<svg width="32" height="32" viewBox="0 0 32 32" fill="none" xmlns="http://www.w3.org/2000/svg">
<g clip-path="url(#clip0_614_548)">
<path d="M5.04248 26.3201L6.61519 20.4776C5.34684 18.2017 4.94387 15.5458 5.48023 12.9974C6.01659 10.449 7.45631 8.17905 9.53518 6.604C11.6141 5.02896 14.1927 4.25451 16.7978 4.42277C19.4029 4.59104 21.8598 5.69072 23.7177 7.52003C25.5756 9.34935 26.7098 11.7856 26.9122 14.3817C27.1145 16.9778 26.3715 19.5596 24.8195 21.6534C23.2675 23.7472 21.0105 25.2125 18.4628 25.7804C15.915 26.3484 13.2474 25.9808 10.9494 24.7453L5.04248 26.3201ZM11.2343 22.559L11.5996 22.7751C13.2641 23.7592 15.2081 24.1664 17.1289 23.9333C19.0496 23.7002 20.8391 22.84 22.2185 21.4865C23.5978 20.1331 24.4896 18.3625 24.7548 16.4508C25.0201 14.539 24.6438 12.5935 23.6847 10.9173C22.7256 9.24107 21.2376 7.92841 19.4525 7.18384C17.6674 6.43927 15.6855 6.30462 13.8156 6.80088C11.9458 7.29713 10.2931 8.3964 9.11496 9.9274C7.93687 11.4584 7.29961 13.3351 7.30248 15.2651C7.30091 16.8653 7.74461 18.4346 8.58418 19.7983L8.81327 20.175L7.93404 23.4359L11.2343 22.559Z" fill="#A9A9A9"/>
<path fill-rule="evenodd" clip-rule="evenodd" d="M20.1007 16.7653C19.8866 16.593 19.6358 16.4717 19.3676 16.4107C19.0993 16.3497 18.8206 16.3506 18.5528 16.4132C18.1503 16.58 17.8903 17.2099 17.6302 17.5249C17.5754 17.6004 17.4948 17.6534 17.4036 17.6739C17.3124 17.6943 17.2168 17.6809 17.1349 17.6361C15.6614 17.0605 14.4264 16.0049 13.6303 14.6407C13.5624 14.5556 13.5303 14.4475 13.5407 14.3392C13.5511 14.2309 13.6032 14.1309 13.686 14.0602C13.9761 13.7738 14.189 13.419 14.3052 13.0288C14.331 12.5983 14.2321 12.1695 14.0204 11.7936C13.8567 11.2665 13.5452 10.7972 13.1226 10.441C12.9046 10.3433 12.663 10.3105 12.4268 10.3466C12.1905 10.3828 11.9699 10.4864 11.7913 10.6448C11.4814 10.9115 11.2354 11.2442 11.0715 11.6183C10.9075 11.9924 10.8298 12.3984 10.844 12.8064C10.845 13.0356 10.8741 13.2637 10.9307 13.4858C11.0745 14.0194 11.2956 14.5291 11.587 14.9989C11.7973 15.3588 12.0267 15.7072 12.2743 16.0427C13.079 17.1445 14.0904 18.08 15.2526 18.7972C15.8357 19.1617 16.459 19.458 17.1101 19.6804C17.7864 19.9862 18.5332 20.1035 19.271 20.02C19.6914 19.9566 20.0897 19.791 20.4309 19.5379C20.7721 19.2848 21.0457 18.952 21.2276 18.5687C21.3345 18.3371 21.367 18.0782 21.3205 17.8276C21.209 17.3149 20.5218 17.0123 20.1007 16.7653Z" fill="#A9A9A9"/>
</g>
<defs>
<clipPath id="clip0_614_548">
<rect width="32" height="32" fill="white"/>
</clipPath>
</defs>
</svg>
